# File created by Blade
# Date/Time:  Tue Sep 30 19:29:03 2014
#---------------------------------------------------------
:version 1.10
:name HOM
:units
  mass 1.0
  length 1.000000
  angle deg
:documentation
     Acclaim Skeleton File
:root
   axis xyz
   order TX TY TZ RX RY RZ
   position 0.000000 0.000000 0.000000
   orientation 0 0 0
:bonedata
   begin
      id 1
      name RightUpLeg_dum
      direction -1.000000 0.000000 0.000000
      length 3.766986
      axis 0.0 0.0 0.0 xyz
   end
   begin
      id 2
      name LeftUpLeg_dum
      direction 1.000000 0.000000 0.000000
      length 3.766986
      axis 0.0 0.0 0.0 xyz
   end
   begin
      id 3
      name Spine_dum
      direction 0.000000 1.000000 0.000000
      length 7.779697
      axis 0.0 0.0 0.0 xyz
   end
   begin
      id 4
      name RightUpLeg
      direction 0.000000 -1.000000 0.000000
      length 18.017682
      axis 0.0 0.0 0.0 xyz
      dof rx ry rz
   end
   begin
      id 5
      name RightLeg
      direction 0.000000 -1.000000 0.000000
      length 16.881075
      axis 0.0 0.0 0.0 xyz
      dof rx ry rz
   end
   begin
      id 6
      name RightFoot
      direction 0.000000 -0.258819 0.965926
      length 5.770812
      axis 15.0 0.0 0.0 xyz
      dof rx ry rz
   end
   begin
      id 7
      name RightToeBase
      direction 0.000000 0.000000 1.000000
      length 2.952750
      axis 0.0 0.0 0.0 xyz
      dof rx ry rz
   end
   begin
      id 8
      name LeftUpLeg
      direction 0.000000 -1.000000 0.000000
      length 18.017682
      axis 0.0 0.0 0.0 xyz
      dof rx ry rz
   end
   begin
      id 9
      name LeftLeg
      direction 0.000000 -1.000000 0.000000
      length 16.881075
      axis 0.0 0.0 0.0 xyz
      dof rx ry rz
   end
   begin
      id 10
      name LeftFoot
      direction 0.000000 -0.258819 0.965926
      length 5.770812
      axis 15.0 0.0 0.0 xyz
      dof rx ry rz
   end
   begin
      id 11
      name LeftToeBase
      direction 0.000000 0.000000 1.000000
      length 2.952750
      axis 0.0 0.0 0.0 xyz
      dof rx ry rz
   end
   begin
      id 12
      name Spine
      direction 0.000000 1.000000 0.000000
      length 0.000000
      axis 0.0 0.0 0.0 xyz
      dof rx ry rz
   end
   begin
      id 13
      name Spine_dum1
      direction 0.000000 1.000000 0.000000
      length 10.941760
      axis 0.0 0.0 0.0 xyz
   end
   begin
      id 14
      name Spine_dum2
      direction 0.000000 1.000000 0.000000
      length 10.941760
      axis 0.0 0.0 0.0 xyz
   end
   begin
      id 15
      name Spine_dum3
      direction 0.000000 1.000000 0.000000
      length 16.646042
      axis 0.0 0.0 0.0 xyz
   end
   begin
      id 16
      name RightShoulder
      direction -1.000000 0.000000 0.000000
      length 7.708937
      axis 0.0 0.0 90.0 xyz
      dof rx ry rz
   end
   begin
      id 17
      name RightArm
      direction -1.000000 0.000000 0.000000
      length 11.521345
      axis 0.0 0.0 90.0 xyz
      dof rx ry rz
   end
   begin
      id 18
      name RightForeArm
      direction -1.000000 0.000000 0.000000
      length 10.175898
      axis 0.0 0.0 90.0 xyz
      dof ry rz rx
   end
   begin
      id 19
      name RightHand
      direction -1.000000 0.000000 0.000000
      length 0.000000
      axis 0.0 0.0 90.0 xyz
      dof rx ry rz
   end
   begin
      id 20
      name RightHand_dum1
      direction -1.000000 0.000000 0.000000
      length 3.937000
      axis 0.0 0.0 90.0 xyz
   end
   begin
      id 21
      name RightHand_dum2
      direction 0.000000 0.000000 0.000000
      length 0.000000
      axis 0.0 0.0 90.0 xyz
   end
   begin
      id 22
      name RightHandThumb1
      direction 0.000000 0.000000 1.000000
      length 3.937000
      axis 0.0 0.0 90.0 xyz
      dof rx rz ry
   end
   begin
      id 23
      name LeftShoulder
      direction 1.000000 0.000000 0.000000
      length 7.708937
      axis 0.0 0.0 -90.0 xyz
      dof rx ry rz
   end
   begin
      id 24
      name LeftArm
      direction 1.000000 0.000000 0.000000
      length 11.521345
      axis 0.0 0.0 -90.0 xyz
      dof rx ry rz
   end
   begin
      id 25
      name LeftForeArm
      direction 1.000000 0.000000 0.000000
      length 10.175898
      axis 0.0 0.0 -90.0 xyz
      dof ry rz rx
   end
   begin
      id 26
      name LeftHand
      direction 1.000000 0.000000 0.000000
      length 0.000000
      axis 0.0 0.0 -90.0 xyz
      dof rx ry rz
   end
   begin
      id 27
      name LeftHand_dum1
      direction 1.000000 0.000000 0.000000
      length 3.937000
      axis 0.0 0.0 -90.0 xyz
   end
   begin
      id 28
      name LeftHand_dum2
      direction 0.000000 0.000000 0.000000
      length 0.000000
      axis 0.0 0.0 -90.0 xyz
   end
   begin
      id 29
      name LeftHandThumb1
      direction 0.000000 0.000000 1.000000
      length 3.937000
      axis 0.0 0.0 -90.0 xyz
      dof rx rz ry
   end
   begin
      id 30
      name Head
      direction 0.000000 1.000000 0.000000
      length 4.527550
      axis 0.0 0.0 0.0 xyz
      dof rx ry rz
   end
:hierarchy
   begin
      root RightUpLeg_dum LeftUpLeg_dum Spine_dum
      RightUpLeg_dum RightUpLeg
      LeftUpLeg_dum LeftUpLeg
      Spine_dum Spine
      RightUpLeg RightLeg
      RightLeg RightFoot
      RightFoot RightToeBase
      LeftUpLeg LeftLeg
      LeftLeg LeftFoot
      LeftFoot LeftToeBase
      Spine Spine_dum1 Spine_dum2 Spine_dum3
      Spine_dum1 RightShoulder
      Spine_dum2 LeftShoulder
      Spine_dum3 Head
      RightShoulder RightArm
      RightArm RightForeArm
      RightForeArm RightHand
      RightHand RightHand_dum1 RightHand_dum2
      RightHand_dum2 RightHandThumb1
      LeftShoulder LeftArm
      LeftArm LeftForeArm
      LeftForeArm LeftHand
      LeftHand LeftHand_dum1 LeftHand_dum2
      LeftHand_dum2 LeftHandThumb1
   end

# File created by Blade
# Date/Time:  Mon Sep 22 16:09:39 2014
# Frame Rate: 120.000 fps
#------------------------------------------------------
:FULLY-SPECIFIED
:DEGREES
747
root 2.680947 37.090752 1.707620 1.403737 -0.189082 1.670793
RightUpLeg 5.835150 -7.253062 -2.519001
RightLeg -4.817892 -0.000000 0.000000
RightFoot -13.001076 -17.220440 16.678275
RightToeBase 14.748084 -0.000000 -0.000000
LeftUpLeg 2.699856 -1.160669 1.774264
LeftLeg -1.626331 -0.000000 0.000000
LeftFoot -8.731039 12.829141 -17.057903
LeftToeBase 9.633715 -0.000000 -0.000000
Spine 0.278482 12.019344 -0.047656
RightShoulder 16.483951 -22.872654 -17.295871
RightArm 26.913317 -27.744298 76.979905
RightForeArm 76.109338 -0.000000 10.479526
RightHand -6.994230 0.000000 -25.847286
RightHandThumb1 -24.326973 -0.000000 -32.862282
LeftShoulder -17.468344 35.508626 -3.623422
LeftArm 50.310737 26.394069 -51.218934
LeftForeArm 23.391109 -0.000000 32.721855
LeftHand -12.571436 -0.000000 -12.356854
LeftHandThumb1 -26.253704 0.000000 33.147579
Head -4.633167 -6.953408 7.310771
748
root 2.701268 37.099281 1.730774 1.372476 0.399905 1.759164
RightUpLeg 5.984965 -7.851580 -2.643046
RightLeg -4.808896 -0.000000 0.000000
RightFoot -13.032226 -17.181412 16.750690
RightToeBase 14.802129 -0.000000 -0.000000
LeftUpLeg 2.624996 -1.501926 1.669458
LeftLeg -1.515464 -0.000000 0.000000
LeftFoot -8.612023 12.648903 -17.010220
LeftToeBase 9.643169 -0.000000 -0.000000
Spine 0.323756 11.252312 -0.043644
RightShoulder 16.676059 -22.726182 -17.517501
RightArm 26.573902 -28.131181 77.510846
RightForeArm 76.722473 -0.000000 9.932156
RightHand -6.871727 -0.000000 -26.704405
RightHandThumb1 -24.326973 -0.000000 -32.862282
LeftShoulder -17.796344 35.875340 -4.013657
LeftArm 49.868860 26.062962 -51.335198
LeftForeArm 22.884761 -0.000000 33.456094
LeftHand -12.649778 -0.000000 -11.960718
LeftHandThumb1 -26.253704 0.000000 33.147579
Head -4.548237 -7.040853 7.087931
749
root 2.698181 37.105308 1.729489 1.374178 0.524279 1.847941
RightUpLeg 5.933523 -7.744900 -2.699615
RightLeg -4.678906 -0.000000 0.000000
RightFoot -13.169286 -17.434524 16.752808
RightToeBase 14.781147 -0.000000 -0.000000
LeftUpLeg 2.541428 -1.347519 1.598313
LeftLeg -1.405229 -0.000000 0.000000
LeftFoot -8.511114 12.400680 -17.053706
LeftToeBase 9.644108 -0.000000 -0.000000
Spine 0.393977 11.040563 -0.166190
RightShoulder 16.870088 -22.670500 -17.553780
RightArm 26.322714 -28.414865 77.906221
RightForeArm 77.033843 -0.000000 9.541953
RightHand -6.791745 -0.000000 -27.136354
RightHandThumb1 -24.326973 -0.000000 -32.862282
LeftShoulder -17.880372 36.104603 -4.097300
LeftArm 49.419169 25.784050 -51.508564
LeftForeArm 22.147442 -0.000000 33.976916
LeftHand -12.508242 -0.000000 -11.815774
LeftHandThumb1 -26.253704 0.000000 33.147579
Head -4.506609 -7.164943 7.004690
750
root 2.691229 37.108016 1.729810 1.343606 0.624920 1.917734
RightUpLeg 5.932220 -7.722585 -2.747310
RightLeg -4.578556 -0.000000 0.000000
RightFoot -13.223779 -17.557318 16.681727
RightToeBase 14.597636 -0.000000 -0.000000
LeftUpLeg 2.490514 -1.156378 1.551050
LeftLeg -1.283309 -0.000000 0.000000
LeftFoot -8.416898 12.129014 -17.040054
LeftToeBase 9.627277 -0.000000 -0.000000
Spine 0.500997 10.941903 -0.234938
RightShoulder 17.029290 -22.781138 -17.535039
RightArm 26.015950 -28.337178 78.320084
RightForeArm 76.993227 -0.000000 9.542145
RightHand -6.742797 -0.000000 -27.675144
RightHandThumb1 -24.326973 -0.000000 -32.862282
LeftShoulder -17.870869 36.241789 -4.101778
LeftArm 49.162040 25.728227 -51.415333
LeftForeArm 21.296871 -0.000000 34.231046
LeftHand -12.560088 -0.000000 -11.228447
LeftHandThumb1 -26.253704 0.000000 33.147579
Head -4.412836 -6.945709 6.912191
